<svg xmlns="http://www.w3.org/2000/svg" xmlns:xlink="http://www.w3.org/1999/xlink" width="500" zoomAndPan="magnify" viewBox="0 0 375 374.999991" height="500" preserveAspectRatio="xMidYMid meet" version="1.2"><defs><clipPath id="bb3e3d0243"><path d="M 80.429688 123 L 294.929688 123 L 294.929688 271 L 80.429688 271 Z M 80.429688 123 "/></clipPath></defs><g id="44aeb2d572"><path style=" stroke:none;fill-rule:nonzero;fill:#000000;fill-opacity:1;" d="M 189.78125 210 C 188.4375 210 187.105469 209.789062 185.785156 209.359375 L 124.546875 188.949219 C 123.4375 191.832031 122.882812 195.546875 122.882812 200.96875 C 126.878906 203.28125 130.773438 207.929688 130.773438 215.941406 C 130.773438 220.851562 128.316406 224.382812 126.207031 226.726562 C 135.289062 237.261719 160.289062 244.835938 189.789062 244.835938 C 226.960938 244.835938 257.085938 232.8125 257.085938 218.011719 C 257.085938 214.738281 257.085938 201.382812 257.085938 188.265625 L 193.761719 209.359375 C 192.457031 209.789062 191.128906 210 189.78125 210 Z M 189.78125 210 "/><g clip-rule="nonzero" clip-path="url(#bb3e3d0243)"><path style=" stroke:none;fill-rule:nonzero;fill:#000000;fill-opacity:1;" d="M 292.050781 157.050781 L 191.109375 123.425781 C 190.234375 123.140625 189.320312 123.140625 188.453125 123.425781 L 87.511719 157.050781 C 85.796875 157.625 84.632812 159.230469 84.632812 161.035156 C 84.632812 162.84375 85.796875 164.449219 87.511719 165.023438 L 110.652344 172.730469 C 105.328125 178.902344 102.230469 187.601562 101.097656 201.757812 C 97.4375 203.484375 94.855469 207.15625 94.855469 211.476562 C 94.855469 215.875 97.496094 219.617188 101.265625 221.304688 C 97.976562 249.929688 80.824219 259.472656 80.824219 261.917969 C 80.824219 263.164062 94.105469 270.324219 97.261719 270.324219 C 102.140625 270.324219 113.847656 262.054688 113.847656 244.1875 C 113.847656 233.664062 112.898438 225.710938 111.898438 220.070312 C 114.597656 218.109375 116.472656 215.074219 116.472656 211.476562 C 116.472656 207.550781 114.277344 204.273438 111.140625 202.382812 C 112.914062 179.019531 120.140625 175.109375 137.621094 167.863281 C 139.371094 167.175781 142.675781 165.835938 144.585938 165.046875 C 148.015625 163.632812 151.121094 162.375 154.097656 161.179688 C 163.714844 157.363281 171.839844 154.292969 178.039062 152.015625 C 184.828125 149.59375 187.871094 148.710938 187.980469 148.679688 C 190.582031 147.804688 193.472656 149.207031 194.367188 151.855469 C 195.25 154.496094 193.835938 157.355469 191.1875 158.246094 C 190.984375 158.3125 179.175781 161.683594 148.445312 174.378906 C 146.46875 175.195312 144.585938 175.933594 142.792969 176.640625 C 139.152344 178.078125 136.132812 179.230469 133.597656 180.390625 L 188.453125 198.65625 C 188.890625 198.792969 189.328125 198.867188 189.78125 198.867188 C 190.234375 198.867188 190.671875 198.792969 191.109375 198.648438 L 292.050781 165.023438 C 293.769531 164.449219 294.929688 162.84375 294.929688 161.035156 C 294.929688 159.230469 293.769531 157.625 292.050781 157.050781 Z M 292.050781 157.050781 "/></g></g></svg>