<svg xmlns="http://www.w3.org/2000/svg" xmlns:xlink="http://www.w3.org/1999/xlink" width="500" zoomAndPan="magnify" viewBox="0 0 375 374.999991" height="500" preserveAspectRatio="xMidYMid meet" version="1.2"><defs><clipPath id="94b22b6d4e"><path d="M 135 117.515625 L 240 117.515625 L 240 267.515625 L 135 267.515625 Z M 135 117.515625 "/></clipPath></defs><g id="80f58eb1a6"><g clip-rule="nonzero" clip-path="url(#94b22b6d4e)"><path style=" stroke:none;fill-rule:nonzero;fill:#000000;fill-opacity:1;" d="M 135.179688 136.785156 C 134.71875 127.296875 142.414062 117.617188 152.289062 117.675781 C 180.222656 117.640625 208.152344 117.675781 236.085938 117.652344 C 237.417969 117.738281 240.265625 117.507812 239.839844 119.710938 C 240.011719 156.816406 239.949219 193.929688 239.863281 231.023438 C 240.15625 235.476562 235.503906 236.820312 231.925781 236.832031 C 231.140625 240.074219 230.945312 243.4375 231.890625 246.683594 C 233.964844 247.152344 236.484375 246.789062 238.144531 248.375 C 240.410156 250.433594 240.144531 253.871094 239.621094 256.605469 C 237.742188 257.464844 235.636719 257.183594 233.648438 257.257812 C 218.316406 257.148438 202.988281 257.332031 187.660156 257.171875 C 185.710938 257.292969 184.644531 256.132812 185.394531 254.183594 C 188.777344 252.972656 192.484375 253.75 196.007812 253.554688 C 209.667969 253.410156 223.347656 253.894531 236.992188 253.300781 C 236.179688 251.375 234.582031 250.140625 232.433594 250.601562 C 218.28125 250.648438 204.128906 250.589844 189.988281 250.648438 C 188.035156 250.585938 184.875 251 185.03125 248.15625 C 186.265625 246.691406 188.242188 247.007812 189.9375 246.933594 C 202.683594 246.96875 215.421875 246.945312 228.167969 246.957031 C 228 246.015625 227.648438 244.148438 227.464844 243.207031 C 212.113281 243.207031 196.757812 243.207031 181.40625 243.207031 C 181.25 250.839844 181.722656 258.515625 181.1875 266.140625 L 180.21875 267.121094 C 176.484375 266.273438 173.1875 264.226562 169.710938 262.714844 C 166.222656 264.335938 162.734375 265.96875 159.207031 267.507812 C 157.378906 264.371094 158.152344 260.667969 158.007812 257.234375 C 153.242188 257.136719 148.128906 257.777344 143.757812 255.429688 C 138.367188 252.707031 134.960938 246.753906 135.203125 240.742188 C 135.15625 206.09375 135.179688 171.433594 135.179688 136.785156 Z M 147.042969 245.046875 C 149.804688 248.074219 154.421875 246.597656 158.023438 246.984375 C 158.035156 246.066406 158.058594 244.226562 158.070312 243.320312 C 155.707031 243.003906 152.894531 243.8125 150.957031 242.035156 C 151.027344 239.871094 152.957031 239.410156 154.757812 239.566406 C 177.007812 239.589844 199.242188 239.554688 221.492188 239.589844 C 224.265625 239.386719 228.363281 240.714844 228.605469 236.648438 C 202.796875 236.542969 176.972656 236.515625 151.160156 236.648438 C 146.972656 236.359375 144.183594 241.902344 147.042969 245.046875 Z M 161.691406 243.210938 C 161.691406 249.609375 161.707031 256.015625 161.691406 262.414062 C 164.296875 261.230469 166.820312 259.847656 169.535156 258.941406 C 172.441406 259.628906 175.035156 261.238281 177.773438 262.402344 C 177.726562 256.011719 177.75 249.621094 177.75 243.21875 C 172.394531 243.222656 167.050781 243.210938 161.691406 243.210938 Z M 161.691406 243.210938 "/></g></g></svg>